<svg xmlns="http://www.w3.org/2000/svg" xmlns:xlink="http://www.w3.org/1999/xlink" width="80" zoomAndPan="magnify" viewBox="0 0 60 60" height="80" preserveAspectRatio="xMidYMid meet" version="1.0"><defs><clipPath id="acbd5132ea"><path d="M 15 17 L 45 17 L 45 49.878906 L 15 49.878906 Z M 15 17 " clip-rule="nonzero"/></clipPath><clipPath id="49aa99dc73"><path d="M 9 10.128906 L 51 10.128906 L 51 32 L 9 32 Z M 9 10.128906 " clip-rule="nonzero"/></clipPath></defs><g clip-path="url(#acbd5132ea)"><path fill="#000000" d="M 44.746094 30.335938 Z M 44.746094 30.335938 L 30.003906 17.277344 L 15.253906 30.339844 L 15.253906 49.007812 C 15.253906 49.488281 15.644531 49.875 16.125 49.875 L 25.34375 49.875 L 25.34375 41.691406 C 25.34375 41.207031 25.730469 40.820312 26.210938 40.820312 L 33.785156 40.820312 C 34.269531 40.820312 34.65625 41.207031 34.65625 41.691406 L 34.65625 49.875 L 43.875 49.875 C 44.359375 49.875 44.746094 49.488281 44.746094 49.007812 L 44.746094 30.332031 Z M 15.253906 30.339844 Z M 15.253906 30.339844 " fill-opacity="1" fill-rule="nonzero"/></g><g clip-path="url(#49aa99dc73)"><path fill="#000000" d="M 29.917969 10.128906 L 9 28.65625 L 11.203125 31.144531 L 30.003906 14.492188 L 48.800781 31.144531 L 51 28.65625 L 30.085938 10.128906 L 30.003906 10.222656 Z M 29.917969 10.128906 " fill-opacity="1" fill-rule="nonzero"/></g><path fill="#000000" d="M 15.253906 12.796875 L 20.558594 12.796875 L 20.511719 15.9375 L 15.253906 20.6875 Z M 15.253906 12.796875 " fill-opacity="1" fill-rule="nonzero"/></svg>