<svg xmlns="http://www.w3.org/2000/svg" xmlns:xlink="http://www.w3.org/1999/xlink" width="80" zoomAndPan="magnify" viewBox="0 0 60 60" height="80" preserveAspectRatio="xMidYMid meet" version="1.0"><defs><clipPath id="f0f8e63dc0"><path d="M 23 27 L 48 27 L 48 50 L 23 50 Z M 23 27 " clip-rule="nonzero"/></clipPath><clipPath id="3ebcc36521"><path d="M 2.613281 23.128906 L 42.957031 4.949219 L 57.4375 37.085938 L 17.097656 55.265625 Z M 2.613281 23.128906 " clip-rule="nonzero"/></clipPath><clipPath id="90067c2ed2"><path d="M 2.613281 23.128906 L 42.957031 4.949219 L 57.4375 37.085938 L 17.097656 55.265625 Z M 2.613281 23.128906 " clip-rule="nonzero"/></clipPath><clipPath id="db345eebeb"><path d="M 17.890625 33.070312 L 41.582031 22.394531 L 49.664062 40.332031 L 25.972656 51.007812 Z M 17.890625 33.070312 " clip-rule="nonzero"/></clipPath><clipPath id="e39e06e7c2"><path d="M 17.890625 33.070312 L 41.582031 22.394531 L 49.664062 40.328125 L 25.972656 51.003906 Z M 17.890625 33.070312 " clip-rule="nonzero"/></clipPath><clipPath id="653c12c80f"><path d="M 8 31 L 20 31 L 20 41 L 8 41 Z M 8 31 " clip-rule="nonzero"/></clipPath><clipPath id="ec59b404bb"><path d="M 2.613281 23.128906 L 42.957031 4.949219 L 57.4375 37.085938 L 17.097656 55.265625 Z M 2.613281 23.128906 " clip-rule="nonzero"/></clipPath><clipPath id="bbbd6fca57"><path d="M 2.613281 23.128906 L 42.957031 4.949219 L 57.4375 37.085938 L 17.097656 55.265625 Z M 2.613281 23.128906 " clip-rule="nonzero"/></clipPath><clipPath id="f15c7fe749"><path d="M 13 18 L 25 18 L 25 30 L 13 30 Z M 13 18 " clip-rule="nonzero"/></clipPath><clipPath id="2f92a029ad"><path d="M 2.613281 23.128906 L 42.957031 4.949219 L 57.4375 37.085938 L 17.097656 55.265625 Z M 2.613281 23.128906 " clip-rule="nonzero"/></clipPath><clipPath id="0440852b7b"><path d="M 2.613281 23.128906 L 42.957031 4.949219 L 57.4375 37.085938 L 17.097656 55.265625 Z M 2.613281 23.128906 " clip-rule="nonzero"/></clipPath><clipPath id="56f3e8db4e"><path d="M 27 11 L 36 11 L 36 25 L 27 25 Z M 27 11 " clip-rule="nonzero"/></clipPath><clipPath id="c79287dd70"><path d="M 2.613281 23.128906 L 42.957031 4.949219 L 57.4375 37.085938 L 17.097656 55.265625 Z M 2.613281 23.128906 " clip-rule="nonzero"/></clipPath><clipPath id="3bff100a5d"><path d="M 2.613281 23.128906 L 42.957031 4.949219 L 57.4375 37.085938 L 17.097656 55.265625 Z M 2.613281 23.128906 " clip-rule="nonzero"/></clipPath><clipPath id="98eeee3540"><path d="M 40 16 L 49 16 L 49 29 L 40 29 Z M 40 16 " clip-rule="nonzero"/></clipPath><clipPath id="309d7ea541"><path d="M 2.613281 23.128906 L 42.957031 4.949219 L 57.4375 37.085938 L 17.097656 55.265625 Z M 2.613281 23.128906 " clip-rule="nonzero"/></clipPath><clipPath id="3d64987501"><path d="M 2.613281 23.128906 L 42.957031 4.949219 L 57.4375 37.085938 L 17.097656 55.265625 Z M 2.613281 23.128906 " clip-rule="nonzero"/></clipPath></defs><g clip-path="url(#f0f8e63dc0)"><g clip-path="url(#3ebcc36521)"><g clip-path="url(#90067c2ed2)"><g clip-path="url(#db345eebeb)"><g clip-path="url(#e39e06e7c2)"><path fill="#000000" d="M 25.914062 36.933594 C 24.882812 39.695312 21.25 42.527344 24.410156 47.058594 C 27.628906 51.675781 34.03125 47.226562 37.625 45.476562 C 39.535156 44.542969 48.175781 42.4375 47.945312 37.726562 C 47.742188 33.605469 44.414062 32.285156 39.734375 31.074219 C 35.558594 29.996094 32.839844 26.296875 29.296875 27.933594 C 25.980469 29.46875 26.542969 35.246094 25.914062 36.933594 " fill-opacity="1" fill-rule="nonzero"/></g></g></g></g></g><g clip-path="url(#653c12c80f)"><g clip-path="url(#ec59b404bb)"><g clip-path="url(#bbbd6fca57)"><path fill="#000000" d="M 16.066406 32.339844 C 19.011719 33.65625 20.636719 36.277344 19.699219 38.191406 C 18.761719 40.101562 15.617188 40.582031 12.675781 39.265625 C 9.734375 37.945312 8.105469 35.324219 9.042969 33.410156 C 9.980469 31.5 13.125 31.019531 16.066406 32.339844 " fill-opacity="1" fill-rule="nonzero"/></g></g></g><g clip-path="url(#f15c7fe749)"><g clip-path="url(#2f92a029ad)"><g clip-path="url(#0440852b7b)"><path fill="#000000" d="M 22.457031 21.117188 C 24.820312 23.859375 25.300781 27.277344 23.53125 28.746094 C 21.761719 30.21875 18.414062 29.1875 16.050781 26.441406 C 13.6875 23.699219 13.207031 20.28125 14.976562 18.8125 C 16.746094 17.339844 20.09375 18.375 22.457031 21.117188 " fill-opacity="1" fill-rule="nonzero"/></g></g></g><g clip-path="url(#56f3e8db4e)"><g clip-path="url(#c79287dd70)"><g clip-path="url(#3bff100a5d)"><path fill="#000000" d="M 35.296875 16.972656 C 35.757812 20.496094 34.339844 23.632812 32.132812 23.976562 C 29.929688 24.324219 27.769531 21.75 27.3125 18.226562 C 26.851562 14.703125 28.269531 11.566406 30.476562 11.222656 C 32.679688 10.875 34.839844 13.453125 35.296875 16.972656 " fill-opacity="1" fill-rule="nonzero"/></g></g></g><g clip-path="url(#98eeee3540)"><g clip-path="url(#309d7ea541)"><g clip-path="url(#3d64987501)"><path fill="#000000" d="M 48.257812 23.101562 C 47.273438 26.394531 44.71875 28.605469 42.546875 28.035156 C 40.378906 27.464844 39.414062 24.332031 40.398438 21.039062 C 41.378906 17.746094 43.933594 15.535156 46.105469 16.105469 C 48.277344 16.671875 49.238281 19.804688 48.257812 23.101562 " fill-opacity="1" fill-rule="nonzero"/></g></g></g></svg>