<svg xmlns="http://www.w3.org/2000/svg" width="500" viewBox="0 0 375 375" height="500" version="1.0"><defs><clipPath id="a"><path d="M25.355 58h324v219h-324zm0 0"/></clipPath><clipPath id="b"><path d="M233 47h116.355v117H233zm0 0"/></clipPath></defs><path fill="#4b4b4b" d="M131.133 271.86c-15.446 0-28.012 12.566-28.012 28.019 0 15.453 12.555 28.02 28.012 28.02 15.453 0 28.02-12.567 28.02-28.02s-12.567-28.02-28.02-28.02zm0 37.972c-5.496 0-9.953-4.469-9.953-9.953 0-5.48 4.457-9.95 9.953-9.95 5.492 0 9.949 4.47 9.949 9.95 0 5.484-4.457 9.953-9.95 9.953zM306.191 271.86c-15.441 0-28.007 12.566-28.007 28.019 0 15.453 12.554 28.02 28.007 28.02 15.454 0 28.02-12.567 28.02-28.02s-12.574-28.02-28.02-28.02zm0 37.972c-5.492 0-9.949-4.469-9.949-9.953 0-5.48 4.457-9.95 9.95-9.95 5.492 0 9.953 4.47 9.953 9.95 0 5.484-4.461 9.953-9.954 9.953zm0 0"/><g clip-path="url(#a)"><path fill="#4b4b4b" d="M308.664 254.39H128.031c-8.097 0-9.719-3.425-9.719-8.96 0-6.14 6.961-7.801 8.653-8.118h174.86c7.327 0 14.402-5.574 16.124-12.675l15.797-65.14c-4.531 3.534-9.496 6.534-14.824 8.866l-3.164 13.024h-45.793l1.336-10.328a67.968 67.968 0 0 1-11.785-4.895l-1.965 15.223H178.8l-4.895-35.914h61.856c-2.766-3.832-5.176-7.946-7.114-12.325h-56.414l-4.246-31.171 54.875.082c.203-4.29.77-8.473 1.723-12.508H98.164l-4.598-18.797c-1.734-7.102-8.828-12.668-16.132-12.668h-45.93c-3.395 0-6.149 2.758-6.149 6.164a6.145 6.145 0 0 0 6.149 6.148h45.918c1.672 0 3.781 1.665 4.176 3.286l37.445 153.293c-6.293 2.707-13.055 8.32-13.055 18.453 0 13.316 8.239 21.273 22.032 21.273h180.636c16.68 0 24.95 2.137 29.45 7.61a6.133 6.133 0 0 0 4.75 2.25c1.39 0 2.765-.47 3.921-1.41 2.625-2.157 3-6.04.844-8.665-8.262-10.043-21.547-12.097-38.957-12.097zm-40.281-60.683h44.387l-6.801 28.04c-.383 1.612-2.48 3.265-4.145 3.265h-37.472zm-12.414 0-4.031 31.305h-67.2l-4.265-31.305zm-87.922 0 4.27 31.305h-41.075l-7.64-31.305zm-66.883-91.832 54.36.09 4.253 31.195h-50.96zm10.664 43.605h49.633l4.894 35.915h-45.761zm0 0"/></g><g clip-path="url(#b)"><path fill="#4b4b4b" d="M291.5 47.145c-32.117 0-58.14 26.03-58.14 58.144 0 32.117 26.023 58.148 58.14 58.148 32.113 0 58.137-26.03 58.137-58.148 0-32.113-26.024-58.144-58.137-58.144zm37.46 67.035h-28.573v28.574h-17.785V114.18h-28.579V96.402h28.579V67.824h17.785v28.578h28.574zm0 0"/></g></svg>