<svg xmlns="http://www.w3.org/2000/svg" width="80" viewBox="0 0 60 60" height="80" version="1.0"><defs><clipPath id="a"><path d="M10.434 9.727h39v40.5h-39Zm0 0"/></clipPath></defs><g clip-path="url(#a)"><path d="M49.227 35.988c-.23.258-.645.274-.957.133-.317-.144-.555-.41-.782-.668-.265-.305-.543-.637-.574-1.039-.012-.125.004-.246-.012-.371-.047-.344-.347-.625-.691-.688-.176-.03-.363-.015-.523-.093-.211-.102-.32-.344-.508-.48-.25-.188-.594-.173-.903-.126-1.043.164-2.035.567-3.066.801-.738.168-1.527.242-2.254.082-.57.762-1.082 1.578-1.793 2.203-.5.442-1.121.824-1.344 1.457-.117.34-.097.715-.07 1.074.113 1.391.371 2.754.773 4.09.375 1.258.13 2.672.403 3.969.062.297.152.602.336.844.086.113.195.215.25.344.058.128.062.292.117.43.066.167.207.292.328.425.316.355.523.855.383 1.313a.445.445 0 0 1-.172.261.62.62 0 0 1-.246.074c-.582.079-1.164.133-1.754.168-.258.016-.52.024-.773-.039-.25-.066-.493-.215-.61-.445-.148-.293-.07-.645-.058-.973.015-.425-.09-.843-.188-1.257-.352-1.426-.7-2.852-1.047-4.278-.328-1.332-.836-2.625-1.265-3.933-.036-.11-.11-.239-.22-.211a.234.234 0 0 0-.105.078c-.175.23-.265.504-.382.765-.192.418-.465.793-.747 1.157a20.194 20.194 0 0 1-4.343 4.113.593.593 0 0 0-.188.168c-.14.207-.015.496.16.676.176.18 2.11 1.746 3.403 1.695.367-.016.765-.074 1.082.117.242.153.386.43.48.688.051.12.059.25.031.379-.093.406-.527.457-.886.468l-1.633.051c-.3.008-.606.016-.899-.05-.34-.083-.644-.262-.945-.43a32.016 32.016 0 0 0-3.754-1.828c-.34-.137-.683-.274-.968-.5-.29-.23-.512-.563-.512-.93 0-.274.129-.535.281-.766.39-.597.965-1.074 1.246-1.734.07-.172.11-.406-.09-.492a.29.29 0 0 0-.281.027c-.723.457-2.414 2.242-2.414 2.242-.273.242-.54.492-.79.762a1.274 1.274 0 0 0-.284.39c-.11.274-.032.587.047.872.097.355.203.73.464.996.149.148.336.254.493.398.218.207.347.457.386.758.032.21-.007.453-.164.602a.767.767 0 0 1-.32.168c-.594.195-1.23.195-1.86.187-.195 0-.402-.004-.585-.078-.461-.18-.649-.719-.785-1.195-.348-1.243-.688-2.555-.395-3.813.121-.508.34-.988.496-1.484.277-.895.348-1.84.39-2.774.055-1.144-.077-2.285-.488-3.351a2.543 2.543 0 0 1-.066-1.598c.094-.324.254-.633.3-.969.079-.539-.152-1.07-.359-1.57-.558-1.348-.996-2.742-1.613-4.059-.316-.699-.703-1.359-1.156-1.98-.227-.305-3.258-4.098-3.54-5.602-.277-1.507-.038-3.14.825-4.406.219-.32.48-.617.805-.832.441-.289.976-.406 1.496-.488.316-.051.633-.078.953-.082.312-.004.64.023.898.215.141.101.23.234.27.406.074.406-.297.691-.66.773-.317.07-.649.035-.969.09-.945.164-1.605 1.117-1.695 2.07-.09.957.273 1.899.734 2.739.395.718.86 1.386 1.399 2.008.628.722 1.351 1.363 2 2.074.648.71 1.23 1.508 1.515 2.426 0 0 .207.804.45 1.242.066.125.148.25.269.32.234.133.531.027.762-.11.558-.335 1.004-.831 1.504-1.25.722-.593 1.562-1.015 2.39-1.452a70.125 70.125 0 0 0 3.836-2.18c1.145-.703 2.285-1.457 3.149-2.485.265-.316.507-.66.648-1.05.273-.739.195-1.57.312-2.336.125-.817.024-1.645.223-2.461.332-1.352 1.246-2.516 1.496-3.883.098-.527.09-1.066.184-1.594.094-.558.316-1.129.789-1.453a.553.553 0 0 1 .183-.082c.391-.094.614.305.743.64.097.25.257.637.394.973.031.07.082.106.16.102.078-.004.125-.043.149-.113.136-.453.254-.98.465-1.328.062-.102.14-.215.293-.188.152.031.234.121.25.277.058.477.05.957-.012 1.434-.035.25-.063.563.238.645.067.02.133.023.2.011a4.195 4.195 0 0 1 2.55.469c.555.293 1.035.703 1.555 1.055.515.347 1.144.472 1.62.883.161.128.286.28.372.464.074.18.11.364.105.559a2.82 2.82 0 0 1-.359 1.496c-.226.395-.297.848-.691 1.137-.305.218-.703.27-1.028.457-.297.172-.515.445-.73.719-.316.402-.649.851-.633 1.363.027.73.73 1.133 1 1.754.313.722.488 1.5.566 2.281.09.937.04 1.887-.062 2.82-.023.235-.05.477.047.688.144.324.598.449.82.558.79.391 1.715.407 2.52.774.336.156.633.383.925.61.817.632 1.641 1.269 2.297 2.066.66.793 1.153 1.765 1.192 2.796.008.27-.02.563-.2.758Zm0 0"/></g></svg>