<svg xmlns="http://www.w3.org/2000/svg" width="80" viewBox="0 0 60 60" height="80" version="1.0"><defs><clipPath id="a"><path d="M6.79 8.703h46.5v42.75H6.79Zm0 0"/></clipPath></defs><g clip-path="url(#a)"><path d="m52.379 13.262-1.297-.395c-.516-.156-1.031-.308-1.55-.465-.255-.074-.25-.074-.196-.34.074-.335.02-.64-.219-.902.035-.082-.023-.144-.113-.215-.043-.03-.102-.05-.14-.09a5.26 5.26 0 0 1-.286-.304c-.25-.278-.508-.551-.808-.774-.235-.175-.504-.285-.762-.418a3.045 3.045 0 0 0-1.422-.32s-.617-.125-.914 0c-.633-.23-1.324-.082-1.984-.07-.872 0-1.368-.266-2.043.476-.258.29-.649.367-.97.567a3.133 3.133 0 0 0-.573.398c-.446.477-1.153.645-1.407 1.297-.379.723.164 1.027.575 1.57.09.11.105.215.039.352-.836 1.547-.63 3.574-1.84 4.914-.867.8-1.828 1.539-2.422 2.57a.844.844 0 0 1-.57.418c-.954.188-1.625.934-2.473 1.38-2.317.73-4.809.62-7.176 1.136-.746.156-1.476.355-2.168.676-.351.168-.68.379-1.02.57-.093.05-.175.121-.292.102-.57-.09-1.145-.141-1.72-.137h-.034c-.153-.004-.68-.09-.68-.09-.254-.059-.59-.152-1.066-.309v-.004h-.012a99.183 99.183 0 0 1-2.781-.96c-1.367-.532-3.258-2.18-4.192-3.04a5.406 5.406 0 0 1-1.086-1.402 6.858 6.858 0 0 0-.16-.289c-.347-.55-.672-1.258-1.3-1.508a.197.197 0 0 0-.258.13c-.25.98-.2 2.054.128 3.007.153.36.301.719.45 1.082.129.48.43.887.66 1.32.086.157.191.301.348.403a.136.136 0 0 1 .062.07c.047.172.242.2.336.332.113.133.242.266.344.402.105.278.41.391.59.598.097.16.28.21.414.309-.008.097.078.101.129.132.085.059.23.07.296.153-.082.101.563.351.75.402.02.004.032.027.02.047-.016.02-.027.039-.043.062-.012.016-.004.04.016.043.23.086.449.165.68.247.011.003.015.011.019.02.039.124.262.112.398.14.024.004.031.027.024.047-.012.015-.02.035-.032.05-.011.02 0 .043.024.047.195.035.379.07.566.102.024.004.032.035.016.054h-.004c-.016.016-.008.047.02.055.242.043.468.086.699.13.015.003.027.019.023.034-.004.082.121.094.195.098.227.027.454.004.676.113.903.262 1.848.305 2.774.5-.239.508-.442 1.027-.778 1.477-.699.879-1.359 1.808-1.824 2.84-.668 1.312-.668 2.824-1.254 4.16-.476 1.144-.937 2.293-1.441 3.425-.668 1.637-2.067 1.676-2.274 2.59-.546 2.215-1.039 4.485-1.964 6.575-.122.23-.145.488-.165.746 0 0 .036.285.13.3.011.004.019.004.03.004.286.016 2.766.153 3.087.164h.027c.101 0 .215-.148.285-.27a.495.495 0 0 0 .066-.288c-.042-.485-.035-1.082-.48-1.352-.09-.05-.133-.117-.133-.215-.062-1.957.742-4.214 2.543-5.18 1.684-.71 3.258-1.656 4.465-3.05 1.04-1.137 1.938-2.426 3.223-3.305a.224.224 0 0 1 .328.086c.504 1.04.418 2.309-.278 3.25-.375.54-.87.938-1.414 1.29-.425.28-.98.597-.918 1.19.168 1.633.442 3.255.68 4.883.117.637.23 1.266.48 1.875 0 0 .172.305.348.301.14 0 .278-.004.414 0 .223-.004 1.516-.062 1.914-.117.563-.074 1.266.313.602-1.187a2.044 2.044 0 0 0-.305-.446c-.297-.36-.758-.398-1.183-.472-.418-.055-.45-.805-.528-1.141-.234-1.36.004-2.902 1.25-3.695.907-.618 1.934-1.024 2.864-1.598 1.714-1.016 2.62-2.89 2.87-4.824a.454.454 0 0 1 .5-.395c2.153.23 3.872 2.016 6.098 1.871.141 1.766.18 3.532.317 5.293.043 1.14.195 2.282.035 3.414-.024.223.004.438.148.602.184.219.243.473.258.746.031.926.184 1.852.035 2.773l-.047.145c.008 0 .012 0 .02.004h-.02c-.011.043-.027.098-.043.152.012.012.02.028.024.063h-.04c-.015.058-.026.12-.042.183h.016v.047h-.024c-.023.137-.035.258-.008.324.051.137.36.329.676.399.121.004 1.59.004 1.711.008 0 0 1.336.023 1.645-.336 0 0 .417.07.742-.313.023-.027.058-.097.039-.152-.793-1.723-1.278-1.219-1.63-1.941-.37-.938-.62-1.965-.444-2.977.117-.773.015-1.563 0-2.344-.098-2.05-.125-4.14.355-6.152.023-.113.078-.188.191-.227.41-.148.778-.347 1.121-.62.516 2.593.922 5.198 1.438 7.792.102.477.129.961.07 1.45-.062.417.399.5.524.847.199.414.383.832.437 1.293.043.348-.074.832.352.965.527.183.426 1.12.949 1.601 0 0 .184.563.645.563.46 0 2.043-.024 2.675-.027l.567-.082c.562-.075-.172-1.426-.43-1.754-.434-.575-.984-.266-1.441-.645-.856-.781-1.426-2.11-1.586-3.25-.012-1.664-.203-3.312-.235-4.973-.043-1.847.172-3.683.446-5.511.074-.883.816-1.492 1.07-2.32.46-1.301.895-2.672.773-4.067-.078-.816-.058-1.629-.015-2.445.035-.676.066-1.356.008-2.032.004-.406-.211-1.074-.063-1.421.992-1.856.055-2.782.899-3.352.3-.254.738-.11 1.085-.379a.279.279 0 0 1 .176-.039c.348.063.664-.02.965-.187.07-.04.145-.04.223-.016.433.125.867.133 1.308.039.653-.102 1.051-.602 1.34-1.156.39-.59.465-1.282.535-1.969.004-.238.207-.488.102-.625.062-.098.117-.184.172-.266.344-.468-.055-1.035-.547-1.14Zm0 0"/></g></svg>