<svg xmlns="http://www.w3.org/2000/svg" width="80" viewBox="0 0 60 60" height="80" version="1.0"><defs><clipPath id="a"><path d="M6 5.55h48.75V54H6zm0 0"/></clipPath></defs><g clip-path="url(#a)"><path fill="#fff" d="M30.227 5.55c13.378 0 24.226 10.848 24.226 24.223C54.453 43.156 43.605 54 30.227 54 16.847 54 6.004 43.152 6.004 29.773c0-13.378 10.844-24.222 24.223-24.222zm1.847 8.93a4.123 4.123 0 1 1 0 8.246 4.12 4.12 0 0 1-4.12-4.12 4.123 4.123 0 0 1 4.12-4.126zm-6.996 10.547h8.617c1.364 0 1.75 1.164 1.492 2.063-.257.898-2.687 13.762-1.832 15.21.852 1.45 2.829-.952 3.508-.991.684-.043 1.196.582.825 1.574-.368.996-2.547 3.187-7.122 3.187-4.578 0-6.14-3.808-5.37-7.734.765-3.922 1.804-8.785 1.859-9.457.058-.668-.035-1.535-1.13-1.527a6.206 6.206 0 0 1-1.109-.067c-1.582-.297-1.168-2.3.262-2.258zm0 0" fill-rule="evenodd"/></g></svg>