<svg xmlns="http://www.w3.org/2000/svg" width="40" viewBox="0 0 30 30" height="40" version="1.0"><defs><clipPath id="a"><path d="M7.36 6.879h15.242v15.238H7.359Zm0 0"/></clipPath></defs><path fill="#8c52ff" d="M12.629 18.563c0 .09-.035.167-.098.23a.304.304 0 0 1-.23.098.304.304 0 0 1-.23-.098.315.315 0 0 1-.094-.23.322.322 0 0 1 .324-.325.326.326 0 0 1 .328.324ZM17.98 18.563c0 .09-.03.167-.097.23a.304.304 0 0 1-.23.098.31.31 0 0 1-.231-.098.315.315 0 0 1-.094-.23.322.322 0 0 1 .324-.325c.09 0 .168.032.23.094a.31.31 0 0 1 .098.23Zm0 0"/><g clip-path="url(#a)"><path fill="#8c52ff" d="M14.996 6.871c-4.215 0-7.633 3.422-7.633 7.637a7.634 7.634 0 1 0 15.27 0 7.638 7.638 0 0 0-7.637-7.637ZM12.91 17.445h4.742c.618 0 1.121.5 1.121 1.117 0 .618-.503 1.122-1.12 1.122a1.123 1.123 0 0 1-1.118-1.122c0-.113.02-.222.05-.324h-3.214a1.12 1.12 0 0 1-1.07 1.445 1.12 1.12 0 0 1-1.117-1.12c0-.551.398-1.008.925-1.098l-.195-1.086-.004-.008-1.043-5.16-.957.004-.008-.79 1.614-.01.39 1.925 7.219.867-.918 3.496h-5.43Zm0 0"/></g></svg>