<svg xmlns="http://www.w3.org/2000/svg" width="500" viewBox="0 0 375 375" height="500" version="1.0"><defs><clipPath id="a"><path d="M37.5 37.5h300.75v300.75H37.5zm0 0"/></clipPath></defs><g clip-path="url(#a)"><path fill="#555" d="M187.848 37.41c-83.086 0-150.438 67.356-150.438 150.442 0 83.082 67.352 150.437 150.438 150.437 83.082 0 150.445-67.36 150.445-150.437 0-83.086-67.363-150.442-150.445-150.442zm-39.145 81.723 31.805-31.805a10.601 10.601 0 0 1 7.527-3.113h.156a10.61 10.61 0 0 1 7.532 3.113l31.8 31.805c4.165 4.156 4.165 10.902 0 15.058a10.605 10.605 0 0 1-7.53 3.121c-2.727 0-5.45-1.039-7.528-3.12l-14.059-14.055v57.062c0 5.887-4.77 10.653-10.656 10.653-5.883 0-10.648-4.766-10.648-10.653v-56.34l-13.336 13.336a10.619 10.619 0 0 1-7.532 3.121c-2.726 0-5.453-1.039-7.53-3.12-4.161-4.16-4.161-10.907 0-15.063zm120.961 128.21c0 14.376-14.098 25.641-32.098 25.641h-99.425c-17.996 0-32.098-11.265-32.098-25.64v-69.211c0-14.38 14.098-25.645 32.098-25.645h13.425c1.528.274 3.086.434 4.672.434 1.575 0 3.125-.16 4.645-.434h.613v20.813h-23.355c-7.286 0-11.29 3.629-11.29 4.832v69.21c0 1.2 4.004 4.829 11.29 4.829h99.425c7.286 0 11.29-3.629 11.29-4.828v-69.211c0-1.203-4.004-4.832-11.29-4.832h-23.554v-20.813h1.441c1.488.258 2.996.434 4.54.434 1.585 0 3.144-.16 4.671-.434h12.902c18 0 32.102 11.266 32.102 25.645v69.21zm0 0"/></g></svg>