<svg xmlns="http://www.w3.org/2000/svg" xmlns:xlink="http://www.w3.org/1999/xlink" width="200" zoomAndPan="magnify" viewBox="0 0 150 149.999998" height="200" preserveAspectRatio="xMidYMid meet" version="1.0"><defs><clipPath id="b28b00eea1"><path d="M 18 29 L 120 29 L 120 110 L 18 110 Z M 18 29 " clip-rule="nonzero"/></clipPath><clipPath id="2dd06e5974"><path d="M 17.445312 32.492188 L 114.96875 15.457031 L 132.777344 117.414062 L 35.253906 134.449219 Z M 17.445312 32.492188 " clip-rule="nonzero"/></clipPath><clipPath id="968d33a436"><path d="M 17.445312 32.492188 L 114.96875 15.457031 L 132.777344 117.414062 L 35.253906 134.449219 Z M 17.445312 32.492188 " clip-rule="nonzero"/></clipPath><clipPath id="9db4f07884"><path d="M 68 113 L 83 113 L 83 128 L 68 128 Z M 68 113 " clip-rule="nonzero"/></clipPath><clipPath id="547f0c9c5d"><path d="M 17.445312 32.492188 L 114.96875 15.457031 L 132.777344 117.414062 L 35.253906 134.449219 Z M 17.445312 32.492188 " clip-rule="nonzero"/></clipPath><clipPath id="5868e1d8d3"><path d="M 17.445312 32.492188 L 114.96875 15.457031 L 132.777344 117.414062 L 35.253906 134.449219 Z M 17.445312 32.492188 " clip-rule="nonzero"/></clipPath><clipPath id="19c2daec02"><path d="M 100 107 L 116 107 L 116 122 L 100 122 Z M 100 107 " clip-rule="nonzero"/></clipPath><clipPath id="407e5353b0"><path d="M 17.445312 32.492188 L 114.96875 15.457031 L 132.777344 117.414062 L 35.253906 134.449219 Z M 17.445312 32.492188 " clip-rule="nonzero"/></clipPath><clipPath id="a0d795fed7"><path d="M 17.445312 32.492188 L 114.96875 15.457031 L 132.777344 117.414062 L 35.253906 134.449219 Z M 17.445312 32.492188 " clip-rule="nonzero"/></clipPath><clipPath id="27d30c76b0"><path d="M 100 20 L 129 20 L 129 49 L 100 49 Z M 100 20 " clip-rule="nonzero"/></clipPath><clipPath id="9d1373b957"><path d="M 98.820312 21.910156 L 126.398438 18.816406 L 129.496094 46.394531 L 101.917969 49.488281 Z M 98.820312 21.910156 " clip-rule="nonzero"/></clipPath><clipPath id="34ef94d086"><path d="M 98.820312 21.910156 L 126.398438 18.816406 L 129.496094 46.394531 L 101.917969 49.488281 Z M 98.820312 21.910156 " clip-rule="nonzero"/></clipPath><clipPath id="842af2b9b1"><path d="M 105 25 L 124 25 L 124 44 L 105 44 Z M 105 25 " clip-rule="nonzero"/></clipPath><clipPath id="9e2ab99288"><path d="M 98.820312 21.910156 L 126.398438 18.816406 L 129.496094 46.394531 L 101.917969 49.488281 Z M 98.820312 21.910156 " clip-rule="nonzero"/></clipPath><clipPath id="564b7e4ef6"><path d="M 98.820312 21.910156 L 126.398438 18.816406 L 129.496094 46.394531 L 101.917969 49.488281 Z M 98.820312 21.910156 " clip-rule="nonzero"/></clipPath></defs><g clip-path="url(#b28b00eea1)"><g clip-path="url(#2dd06e5974)"><g clip-path="url(#968d33a436)"><path fill="#cfcfcf" d="M 113.71875 92.121094 L 65.722656 100.507812 C 65.449219 100.5625 65.175781 100.59375 64.894531 100.59375 C 64.617188 100.597656 64.339844 100.570312 64.066406 100.515625 C 63.792969 100.460938 63.527344 100.382812 63.273438 100.273438 C 63.015625 100.167969 62.769531 100.035156 62.539062 99.878906 C 62.308594 99.722656 62.097656 99.542969 61.902344 99.34375 C 61.707031 99.144531 61.53125 98.929688 61.382812 98.695312 C 61.230469 98.460938 61.105469 98.214844 61 97.953125 C 60.898438 97.695312 60.824219 97.429688 60.777344 97.152344 C 60.730469 96.878906 60.710938 96.601562 60.71875 96.324219 C 60.726562 96.046875 60.761719 95.769531 60.824219 95.5 C 60.886719 95.226562 60.976562 94.964844 61.089844 94.710938 C 61.207031 94.457031 61.347656 94.21875 61.511719 93.992188 C 61.675781 93.765625 61.859375 93.558594 62.066406 93.371094 C 62.273438 93.183594 62.496094 93.019531 62.734375 92.875 C 62.972656 92.730469 63.222656 92.613281 63.484375 92.519531 C 63.75 92.425781 64.019531 92.363281 64.292969 92.324219 L 112.292969 83.9375 C 112.820312 83.847656 113.316406 83.671875 113.785156 83.410156 C 114.25 83.148438 114.664062 82.816406 115.015625 82.414062 C 115.371094 82.011719 115.648438 81.5625 115.847656 81.066406 C 116.050781 80.570312 116.164062 80.054688 116.1875 79.519531 L 118.058594 38.71875 C 118.074219 38.363281 118.050781 38.015625 117.988281 37.667969 C 117.925781 37.324219 117.824219 36.988281 117.6875 36.664062 C 117.546875 36.339844 117.375 36.035156 117.167969 35.75 C 116.960938 35.460938 116.726562 35.203125 116.460938 34.972656 C 116.199219 34.738281 115.910156 34.539062 115.601562 34.371094 C 115.292969 34.203125 114.96875 34.070312 114.628906 33.976562 C 114.289062 33.878906 113.941406 33.824219 113.589844 33.804688 C 113.238281 33.789062 112.890625 33.808594 112.542969 33.871094 L 47.085938 45.304688 C 46.75 45.359375 46.429688 45.453125 46.113281 45.578125 L 40.457031 32.175781 C 40.25 31.683594 39.96875 31.242188 39.609375 30.847656 C 39.253906 30.453125 38.839844 30.128906 38.375 29.875 C 37.90625 29.621094 37.410156 29.449219 36.882812 29.363281 C 36.359375 29.277344 35.835938 29.28125 35.308594 29.371094 L 22.214844 31.660156 C 21.910156 31.710938 21.617188 31.792969 21.328125 31.90625 C 21.039062 32.015625 20.765625 32.15625 20.503906 32.320312 C 20.242188 32.488281 20 32.675781 19.777344 32.890625 C 19.554688 33.101562 19.351562 33.335938 19.175781 33.589844 C 18.996094 33.84375 18.847656 34.109375 18.722656 34.390625 C 18.597656 34.675781 18.5 34.96875 18.433594 35.269531 C 18.367188 35.570312 18.328125 35.875 18.320312 36.183594 C 18.3125 36.492188 18.335938 36.800781 18.390625 37.105469 C 18.441406 37.410156 18.527344 37.707031 18.636719 37.992188 C 18.75 38.28125 18.886719 38.554688 19.054688 38.816406 C 19.21875 39.078125 19.40625 39.320312 19.621094 39.542969 C 19.835938 39.769531 20.066406 39.96875 20.320312 40.144531 C 20.574219 40.324219 20.839844 40.476562 21.125 40.601562 C 21.40625 40.726562 21.699219 40.820312 22 40.886719 C 22.300781 40.957031 22.605469 40.992188 22.917969 41 C 23.226562 41.007812 23.53125 40.984375 23.835938 40.929688 L 33.238281 39.289062 L 54.027344 88.488281 C 53.234375 89.578125 52.617188 90.765625 52.179688 92.039062 C 51.742188 93.316406 51.5 94.628906 51.453125 95.976562 C 51.410156 97.324219 51.558594 98.648438 51.910156 99.953125 C 52.261719 101.253906 52.792969 102.480469 53.507812 103.621094 C 54.222656 104.765625 55.089844 105.78125 56.109375 106.664062 C 57.128906 107.550781 58.253906 108.265625 59.484375 108.816406 C 60.71875 109.363281 62.003906 109.71875 63.34375 109.882812 C 64.679688 110.046875 66.015625 110.011719 67.34375 109.777344 L 115.339844 101.394531 C 115.644531 101.34375 115.941406 101.261719 116.230469 101.148438 C 116.515625 101.035156 116.792969 100.898438 117.054688 100.734375 C 117.3125 100.566406 117.554688 100.378906 117.78125 100.164062 C 118.003906 99.949219 118.203125 99.71875 118.382812 99.464844 C 118.558594 99.210938 118.710938 98.945312 118.835938 98.660156 C 118.960938 98.378906 119.054688 98.085938 119.125 97.785156 C 119.191406 97.484375 119.230469 97.179688 119.234375 96.871094 C 119.242188 96.558594 119.21875 96.253906 119.167969 95.949219 C 119.113281 95.644531 119.03125 95.347656 118.917969 95.058594 C 118.808594 94.773438 118.667969 94.496094 118.503906 94.238281 C 118.339844 93.976562 118.148438 93.734375 117.9375 93.511719 C 117.722656 93.285156 117.488281 93.085938 117.234375 92.90625 C 116.984375 92.730469 116.714844 92.578125 116.433594 92.453125 C 116.148438 92.328125 115.859375 92.234375 115.554688 92.164062 C 115.253906 92.097656 114.949219 92.0625 114.640625 92.054688 C 114.332031 92.046875 114.023438 92.070312 113.71875 92.121094 Z M 113.71875 92.121094 " fill-opacity="1" fill-rule="nonzero"/></g></g></g><g clip-path="url(#9db4f07884)"><g clip-path="url(#547f0c9c5d)"><g clip-path="url(#5868e1d8d3)"><path fill="#cfcfcf" d="M 82.457031 119.085938 C 82.535156 119.539062 82.570312 120 82.558594 120.464844 C 82.550781 120.925781 82.492188 121.386719 82.390625 121.839844 C 82.292969 122.289062 82.148438 122.730469 81.960938 123.152344 C 81.773438 123.578125 81.546875 123.976562 81.277344 124.359375 C 81.011719 124.738281 80.710938 125.085938 80.375 125.40625 C 80.039062 125.726562 79.675781 126.011719 79.285156 126.257812 C 78.894531 126.507812 78.484375 126.714844 78.050781 126.882812 C 77.617188 127.050781 77.171875 127.171875 76.71875 127.253906 C 76.261719 127.332031 75.800781 127.367188 75.335938 127.355469 C 74.875 127.347656 74.414062 127.289062 73.964844 127.1875 C 73.511719 127.089844 73.074219 126.945312 72.648438 126.757812 C 72.222656 126.570312 71.824219 126.34375 71.445312 126.074219 C 71.0625 125.808594 70.714844 125.507812 70.394531 125.171875 C 70.074219 124.835938 69.789062 124.472656 69.542969 124.082031 C 69.292969 123.691406 69.085938 123.28125 68.917969 122.847656 C 68.75 122.414062 68.628906 121.96875 68.546875 121.511719 C 68.46875 121.058594 68.433594 120.597656 68.445312 120.132812 C 68.453125 119.671875 68.511719 119.210938 68.613281 118.757812 C 68.714844 118.308594 68.855469 117.867188 69.042969 117.445312 C 69.230469 117.019531 69.457031 116.621094 69.726562 116.238281 C 69.992188 115.859375 70.292969 115.511719 70.628906 115.191406 C 70.964844 114.871094 71.328125 114.585938 71.71875 114.339844 C 72.109375 114.089844 72.523438 113.882812 72.953125 113.714844 C 73.386719 113.546875 73.832031 113.425781 74.289062 113.34375 C 74.742188 113.265625 75.203125 113.230469 75.667969 113.242188 C 76.132812 113.25 76.589844 113.308594 77.042969 113.410156 C 77.492188 113.507812 77.933594 113.652344 78.355469 113.839844 C 78.78125 114.027344 79.179688 114.253906 79.5625 114.523438 C 79.941406 114.789062 80.289062 115.089844 80.609375 115.425781 C 80.929688 115.761719 81.214844 116.125 81.460938 116.515625 C 81.710938 116.90625 81.917969 117.316406 82.085938 117.75 C 82.253906 118.183594 82.378906 118.628906 82.457031 119.085938 Z M 82.457031 119.085938 " fill-opacity="1" fill-rule="nonzero"/></g></g></g><g clip-path="url(#19c2daec02)"><g clip-path="url(#407e5353b0)"><g clip-path="url(#a0d795fed7)"><path fill="#cfcfcf" d="M 114.914062 113.414062 C 114.992188 113.871094 115.027344 114.332031 115.015625 114.796875 C 115.003906 115.257812 114.949219 115.714844 114.847656 116.167969 C 114.746094 116.621094 114.601562 117.058594 114.414062 117.484375 C 114.226562 117.90625 114 118.308594 113.734375 118.6875 C 113.46875 119.066406 113.167969 119.417969 112.832031 119.738281 C 112.496094 120.058594 112.132812 120.34375 111.742188 120.589844 C 111.351562 120.839844 110.9375 121.046875 110.503906 121.214844 C 110.074219 121.382812 109.628906 121.503906 109.171875 121.585938 C 108.714844 121.664062 108.253906 121.699219 107.792969 121.6875 C 107.328125 121.675781 106.871094 121.621094 106.417969 121.519531 C 105.964844 121.417969 105.527344 121.273438 105.105469 121.085938 C 104.679688 120.898438 104.277344 120.671875 103.898438 120.40625 C 103.519531 120.140625 103.167969 119.839844 102.851562 119.503906 C 102.53125 119.167969 102.246094 118.804688 101.996094 118.414062 C 101.75 118.023438 101.539062 117.609375 101.375 117.179688 C 101.207031 116.746094 101.082031 116.300781 101.003906 115.84375 C 100.921875 115.386719 100.886719 114.929688 100.898438 114.464844 C 100.910156 114 100.964844 113.542969 101.066406 113.089844 C 101.167969 112.636719 101.3125 112.199219 101.5 111.777344 C 101.6875 111.351562 101.914062 110.949219 102.179688 110.570312 C 102.449219 110.191406 102.75 109.84375 103.082031 109.523438 C 103.417969 109.203125 103.78125 108.917969 104.171875 108.667969 C 104.566406 108.421875 104.976562 108.214844 105.410156 108.046875 C 105.839844 107.878906 106.285156 107.753906 106.742188 107.675781 C 107.199219 107.59375 107.660156 107.5625 108.121094 107.570312 C 108.585938 107.582031 109.042969 107.636719 109.496094 107.738281 C 109.949219 107.839844 110.386719 107.984375 110.8125 108.171875 C 111.234375 108.359375 111.636719 108.585938 112.015625 108.851562 C 112.394531 109.121094 112.746094 109.421875 113.066406 109.757812 C 113.386719 110.089844 113.667969 110.453125 113.917969 110.847656 C 114.167969 111.238281 114.375 111.648438 114.542969 112.082031 C 114.707031 112.515625 114.832031 112.957031 114.914062 113.414062 Z M 114.914062 113.414062 " fill-opacity="1" fill-rule="nonzero"/></g></g></g><g clip-path="url(#27d30c76b0)"><g clip-path="url(#9d1373b957)"><g clip-path="url(#34ef94d086)"><path fill="#ad5359" d="M 128.292969 32.734375 C 129.15625 40.4375 123.613281 47.386719 115.90625 48.25 C 108.203125 49.117188 101.253906 43.570312 100.390625 35.863281 C 99.523438 28.160156 105.070312 21.210938 112.773438 20.347656 C 120.480469 19.480469 127.429688 25.027344 128.292969 32.734375 " fill-opacity="1" fill-rule="nonzero"/></g></g></g><g clip-path="url(#842af2b9b1)"><g clip-path="url(#9e2ab99288)"><g clip-path="url(#564b7e4ef6)"><path fill="#ffffff" d="M 121.808594 27.726562 L 119.09375 25.558594 L 114.066406 31.855469 L 107.769531 26.832031 L 105.601562 29.546875 L 111.898438 34.574219 L 106.871094 40.871094 L 109.589844 43.039062 L 114.617188 36.742188 L 120.914062 41.765625 L 123.082031 39.050781 L 116.785156 34.023438 L 121.808594 27.726562 " fill-opacity="1" fill-rule="nonzero"/></g></g></g></svg>